<svg xmlns="http://www.w3.org/2000/svg" viewBox="0 0 64 64" width="64" height="64">
<path fill="#fff" d="M32 4a28 28 0 00-8.9 54.6c1.4.3 1.9-.6 1.9-1.4v-4.7c-7.8 1.7-9.4-3.8-9.4-3.8-1.3-3.2-3.1-4.1-3.1-4.1-2.6-1.7.2-1.7.2-1.7 2.8.2 4.3 2.9 4.3 2.9 2.5 4.3 6.6 3.1 8.2 2.3.3-1.8 1-3.1 1.8-3.8-6.3-.7-12.9-3.1-12.9-13.9 0-3.1 1.1-5.6 2.9-7.5-.3-.7-1.3-3.6.3-7.4 0 0 2.4-.8 7.7 2.9a26.6 26.6 0 0114 0c5.3-3.7 7.7-2.9 7.7-2.9 1.6 3.8.6 6.7.3 7.4 1.8 1.9 2.9 4.4 2.9 7.5 0 10.8-6.6 13.2-12.9 13.9 1 .9 1.9 2.6 1.9 5.2v7.7c0 .8.5 1.7 1.9 1.4A28 28 0 0032 4z"/>
</svg>