<svg xmlns="http://www.w3.org/2000/svg" viewBox="0 0 64 64" width="64" height="64">
<circle cx="32" cy="32" r="30" fill="#21759B"/>
<circle cx="32" cy="32" r="24" fill="none" stroke="#fff" stroke-width="2.5"/>
<path fill="#fff" d="M11 32c0 8.3 4.8 15.5 11.8 18.9L13.1 24.5C11.7 26.8 11 29.3 11 32zm35.2-1.1c0-2.6-.9-4.4-1.7-5.8-1-1.7-2-3.2-2-4.9 0-1.9 1.5-3.7 3.5-3.7h.3A20.9 20.9 0 0 0 32 11c-7.1 0-13.4 3.6-17 9.1h1.3c2.2 0 5.6-.3 5.6-.3 1.1-.1 1.3 1.6.1 1.7 0 0-1.1.1-2.4.2l7.6 22.6 4.6-13.7-3.3-9c-1.1-.1-2.2-.2-2.2-.2-1.1-.1-1-1.8.1-1.7 0 0 3.4.3 5.5.3 2.2 0 5.6-.3 5.6-.3 1.1-.1 1.3 1.6.1 1.7 0 0-1.1.1-2.4.2l7.5 22.4 2.1-6.9c.9-2.9 1.6-5 1.6-6.8zM32.4 33.8L26.2 51.9a20.9 20.9 0 0 0 12.8-.3l-.2-.4-6.4-17.4zm18-11.9c.1.7.1 1.4.1 2.2 0 2.2-.4 4.6-1.6 7.7l-6.5 18.8A21 21 0 0 0 53 32c0-3.6-.9-7-2.5-10z"/>
</svg>